<svg width="1146" height="250" viewBox="0 0 1146 250" fill="none" xmlns="http://www.w3.org/2000/svg">
<path opacity="0.98" fill-rule="evenodd" clip-rule="evenodd" d="M48.8148 11C49.1229 10.9909 55.4014 12.9363 76.1395 19.6451L76.1305 25.5539C76.1214 29.8264 76.7013 32.7263 78.2143 36.0079C79.3649 38.5078 81.9107 41.8895 83.8677 43.5167C85.8246 45.1439 89.4667 47.1438 91.9582 47.9619C95.111 48.9891 98.0011 49.271 101.471 48.8801C104.579 48.5346 107.967 47.371 110.477 45.7984C112.696 44.4166 115.768 41.644 117.317 39.6441C118.866 37.6442 120.316 35.508 120.542 34.908C120.832 34.1262 124.619 34.9898 133.634 37.8988C140.61 40.1441 146.408 42.0713 146.526 42.1804C146.635 42.2804 145.52 46.362 141.335 60.0977L157.643 81.4603L154.472 84.8693C152.732 86.7419 150.893 89.8145 150.404 91.6871C149.905 93.5598 149.507 96.9414 149.507 99.1868C149.516 101.432 150.023 104.877 150.639 106.841C151.246 108.795 153.203 112.068 154.988 114.113C156.764 116.15 160.025 118.74 162.236 119.859C165.171 121.34 167.835 121.886 172.138 121.877C176.052 121.877 179.395 121.258 182.104 120.059C184.351 119.059 186.417 118.559 186.707 118.94C186.997 119.322 190.566 124.04 194.634 129.413C198.711 134.785 202.018 139.494 202 139.867C201.982 140.239 173.642 162.429 139.015 189.183C104.388 215.936 75.5597 237.898 74.9527 237.998C74.3366 238.098 70.2687 233.499 57.9835 217.363L61.082 214.409C62.7852 212.781 65.0955 209.409 66.2099 206.909C67.4964 204.036 68.2574 200.527 68.2755 197.364C68.3027 193.773 67.6232 190.882 65.8656 187.137C64.5066 184.237 62.1057 180.919 60.475 179.692C58.8532 178.474 55.8997 176.783 53.9065 175.929C51.9133 175.074 48.0085 174.329 45.2181 174.283C41.286 174.201 38.9214 174.792 29.1548 179.638L26.5818 176.32C24.2625 173.329 22.8219 172.629 12.0044 169.274C4.98295 167.093 0 165.075 0 164.411C0 163.784 10.8628 129.013 24.1266 87.1419C37.3993 45.2711 48.5159 11 48.8148 11Z" fill="#C29E04"/>
<path d="M282.944 125.792C273.899 125.792 265.963 124.128 259.136 120.8C252.395 117.472 247.147 112.864 243.392 106.976C239.723 101.003 237.888 94.1333 237.888 86.368C237.888 78.6027 239.253 71.4347 241.984 64.864C244.715 58.2933 248.597 52.6187 253.632 47.84C258.667 42.976 264.64 39.2213 271.552 36.576C278.549 33.9307 286.315 32.608 294.848 32.608C303.808 32.608 311.531 34.016 318.016 36.832C324.587 39.648 329.877 43.744 333.888 49.12L315.712 63.456C312.725 59.7867 309.483 57.2267 305.984 55.776C302.485 54.3253 298.389 53.6 293.696 53.6C289.088 53.6 284.907 54.368 281.152 55.904C277.483 57.44 274.325 59.616 271.68 62.432C269.035 65.248 266.987 68.576 265.536 72.416C264.171 76.1707 263.488 80.2667 263.488 84.704C263.488 88.7147 264.384 92.256 266.176 95.328C267.968 98.3147 270.571 100.661 273.984 102.368C277.397 103.989 281.536 104.8 286.4 104.8C290.325 104.8 294.08 104.16 297.664 102.88C301.333 101.6 305.003 99.4667 308.672 96.48L318.272 115.04C313.664 118.453 308.331 121.099 302.272 122.976C296.213 124.853 289.771 125.792 282.944 125.792ZM296.64 111.072L303.424 77.28H325.824L318.272 115.04L296.64 111.072ZM326.148 124L344.068 34.4H382.34C393.86 34.4 402.735 36.9173 408.964 41.952C415.279 46.9867 418.436 53.984 418.436 62.944C418.436 70.4533 416.601 77.024 412.932 82.656C409.348 88.2027 404.228 92.512 397.572 95.584C390.916 98.656 383.065 100.192 374.02 100.192H344.964L358.404 89.312L351.492 124H326.148ZM382.34 124L364.036 91.36H390.276L408.836 124H382.34ZM357.764 92.256L348.932 80.608H375.172C380.804 80.608 385.156 79.2853 388.228 76.64C391.3 73.9947 392.836 70.24 392.836 65.376C392.836 61.6213 391.599 58.848 389.124 57.056C386.649 55.264 383.193 54.368 378.756 54.368H354.308L367.876 42.336L357.764 92.256ZM403.746 124L461.218 34.4H486.178L507.81 124H482.594L466.594 46.432H476.578L430.498 124H403.746ZM428.834 106.592L439.074 87.904H482.85L485.666 106.592H428.834ZM508.723 124L526.643 34.4H547.507L583.731 94.304L575.027 94.048L586.931 34.4H611.763L593.843 124H572.979L536.883 64.096L545.459 64.352L533.555 124H508.723ZM605.448 124L623.368 34.4H662.28C671.667 34.4 679.688 35.936 686.344 39.008C693.085 42.08 698.248 46.432 701.832 52.064C705.416 57.6107 707.208 64.2667 707.208 72.032C707.208 79.968 705.843 87.136 703.112 93.536C700.381 99.8507 696.541 105.312 691.592 109.92C686.643 114.443 680.755 117.941 673.928 120.416C667.101 122.805 659.549 124 651.272 124H605.448ZM634.888 103.776H652.04C658.44 103.776 663.816 102.453 668.168 99.808C672.52 97.1627 675.848 93.5787 678.152 89.056C680.456 84.448 681.608 79.2853 681.608 73.568C681.608 69.5573 680.755 66.144 679.048 63.328C677.427 60.512 674.952 58.3787 671.624 56.928C668.381 55.392 664.328 54.624 659.464 54.624H644.616L634.888 103.776ZM738.206 125.792C733.086 125.792 728.179 125.365 723.486 124.512C718.793 123.744 714.526 122.635 710.686 121.184C706.846 119.648 703.561 117.984 700.83 116.192L710.814 97.248C713.886 99.1253 717.043 100.747 720.286 102.112C723.614 103.392 726.985 104.373 730.398 105.056C733.811 105.739 737.225 106.08 740.638 106.08C743.881 106.08 746.654 105.781 748.958 105.184C751.262 104.501 753.011 103.563 754.206 102.368C755.401 101.173 755.998 99.7653 755.998 98.144C755.998 96.352 755.187 94.944 753.566 93.92C752.03 92.8107 749.982 91.872 747.422 91.104C744.862 90.336 742.003 89.568 738.846 88.8C735.774 87.9467 732.659 86.9653 729.502 85.856C726.43 84.6613 723.614 83.2107 721.054 81.504C718.494 79.712 716.403 77.4507 714.782 74.72C713.246 71.9893 712.478 68.6187 712.478 64.608C712.478 58.1227 714.227 52.4907 717.726 47.712C721.225 42.9333 726.174 39.2213 732.574 36.576C739.059 33.9307 746.697 32.608 755.486 32.608C761.886 32.608 767.859 33.2907 773.406 34.656C778.953 35.936 783.731 37.8133 787.742 40.288L778.526 59.104C775.027 56.8853 771.145 55.2213 766.878 54.112C762.697 52.9173 758.387 52.32 753.95 52.32C750.537 52.32 747.593 52.704 745.118 53.472C742.729 54.24 740.894 55.3067 739.614 56.672C738.419 57.952 737.822 59.4027 737.822 61.024C737.822 62.7307 738.59 64.1387 740.126 65.248C741.662 66.3573 743.71 67.296 746.27 68.064C748.915 68.832 751.774 69.6427 754.846 70.496C758.003 71.264 761.118 72.2027 764.19 73.312C767.262 74.336 770.121 75.744 772.766 77.536C775.411 79.2427 777.502 81.4187 779.038 84.064C780.574 86.7093 781.342 89.9947 781.342 93.92C781.342 100.32 779.593 105.909 776.094 110.688C772.595 115.467 767.603 119.179 761.118 121.824C754.633 124.469 746.995 125.792 738.206 125.792ZM798.967 124L812.919 54.496H785.399L789.495 34.4H869.751L865.655 54.496H838.263L824.311 124H798.967ZM839.621 124L897.093 34.4H922.053L943.685 124H918.469L902.469 46.432H912.453L866.373 124H839.621ZM864.709 106.592L874.949 87.904H918.725L921.541 106.592H864.709ZM944.598 124L962.518 34.4H983.382L1019.61 94.304L1010.9 94.048L1022.81 34.4H1047.64L1029.72 124H1008.85L972.758 64.096L981.334 64.352L969.43 124H944.598ZM1041.32 124L1059.24 34.4H1098.16C1107.54 34.4 1115.56 35.936 1122.22 39.008C1128.96 42.08 1134.12 46.432 1137.71 52.064C1141.29 57.6107 1143.08 64.2667 1143.08 72.032C1143.08 79.968 1141.72 87.136 1138.99 93.536C1136.26 99.8507 1132.42 105.312 1127.47 109.92C1122.52 114.443 1116.63 117.941 1109.8 120.416C1102.98 122.805 1095.42 124 1087.15 124H1041.32ZM1070.76 103.776H1087.92C1094.32 103.776 1099.69 102.453 1104.04 99.808C1108.4 97.1627 1111.72 93.5787 1114.03 89.056C1116.33 84.448 1117.48 79.2853 1117.48 73.568C1117.48 69.5573 1116.63 66.144 1114.92 63.328C1113.3 60.512 1110.83 58.3787 1107.5 56.928C1104.26 55.392 1100.2 54.624 1095.34 54.624H1080.49L1070.76 103.776Z" fill="#232D33"/>
<path d="M300.76 227L310.57 178.13H291.22L294.1 164H350.53L347.65 178.13H328.39L318.58 227H300.76ZM363.469 227L376.069 164H393.889L381.289 227H363.469ZM447.247 228.26C440.827 228.26 435.217 227.09 430.417 224.75C425.677 222.41 422.017 219.17 419.437 215.03C416.857 210.83 415.567 206 415.567 200.54C415.567 195.08 416.527 190.04 418.447 185.42C420.367 180.8 423.067 176.81 426.547 173.45C430.027 170.03 434.167 167.39 438.967 165.53C443.827 163.67 449.197 162.74 455.077 162.74C460.897 162.74 466.057 163.76 470.557 165.8C475.057 167.84 478.417 170.78 480.637 174.62L467.767 184.88C466.327 182.48 464.437 180.65 462.097 179.39C459.817 178.13 457.087 177.5 453.907 177.5C450.847 177.5 448.057 178.04 445.537 179.12C443.077 180.2 440.947 181.73 439.147 183.71C437.347 185.69 435.967 188.03 435.007 190.73C434.047 193.37 433.567 196.25 433.567 199.37C433.567 202.19 434.167 204.68 435.367 206.84C436.627 208.94 438.397 210.59 440.677 211.79C443.017 212.93 445.777 213.5 448.957 213.5C451.777 213.5 454.477 212.93 457.057 211.79C459.697 210.65 462.127 208.79 464.347 206.21L474.877 216.56C471.337 220.82 467.257 223.85 462.637 225.65C458.017 227.39 452.887 228.26 447.247 228.26ZM517.022 213.32L519.632 192.98L551.672 164H572.642L539.792 193.34L527.912 203.51L517.022 213.32ZM498.212 227L510.812 164H528.362L515.762 227H498.212ZM541.502 227L524.852 200.99L537.812 189.02L561.392 227H541.502ZM608.818 188.39H638.068L635.458 201.71H606.208L608.818 188.39ZM605.128 213.23H638.158L635.278 227H584.788L597.388 164H646.708L643.918 177.77H612.148L605.128 213.23ZM677.477 227L687.287 178.13H667.937L670.817 164H727.247L724.367 178.13H705.107L695.297 227H677.477ZM763.5 228.26C759.9 228.26 756.45 227.96 753.15 227.36C749.85 226.82 746.85 226.04 744.15 225.02C741.45 223.94 739.14 222.77 737.22 221.51L744.24 208.19C746.4 209.51 748.62 210.65 750.9 211.61C753.24 212.51 755.61 213.2 758.01 213.68C760.41 214.16 762.81 214.4 765.21 214.4C767.49 214.4 769.44 214.19 771.06 213.77C772.68 213.29 773.91 212.63 774.75 211.79C775.59 210.95 776.01 209.96 776.01 208.82C776.01 207.56 775.44 206.57 774.3 205.85C773.22 205.07 771.78 204.41 769.98 203.87C768.18 203.33 766.17 202.79 763.95 202.25C761.79 201.65 759.6 200.96 757.38 200.18C755.22 199.34 753.24 198.32 751.44 197.12C749.64 195.86 748.17 194.27 747.03 192.35C745.95 190.43 745.41 188.06 745.41 185.24C745.41 180.68 746.64 176.72 749.1 173.36C751.56 170 755.04 167.39 759.54 165.53C764.1 163.67 769.47 162.74 775.65 162.74C780.15 162.74 784.35 163.22 788.25 164.18C792.15 165.08 795.51 166.4 798.33 168.14L791.85 181.37C789.39 179.81 786.66 178.64 783.66 177.86C780.72 177.02 777.69 176.6 774.57 176.6C772.17 176.6 770.1 176.87 768.36 177.41C766.68 177.95 765.39 178.7 764.49 179.66C763.65 180.56 763.23 181.58 763.23 182.72C763.23 183.92 763.77 184.91 764.85 185.69C765.93 186.47 767.37 187.13 769.17 187.67C771.03 188.21 773.04 188.78 775.2 189.38C777.42 189.92 779.61 190.58 781.77 191.36C783.93 192.08 785.94 193.07 787.8 194.33C789.66 195.53 791.13 197.06 792.21 198.92C793.29 200.78 793.83 203.09 793.83 205.85C793.83 210.35 792.6 214.28 790.14 217.64C787.68 221 784.17 223.61 779.61 225.47C775.05 227.33 769.68 228.26 763.5 228.26ZM826.589 227.81C823.709 227.81 821.369 226.94 819.569 225.2C817.769 223.4 816.869 221.15 816.869 218.45C816.869 215.15 817.949 212.51 820.109 210.53C822.269 208.55 824.849 207.56 827.849 207.56C830.729 207.56 833.039 208.43 834.779 210.17C836.579 211.91 837.479 214.16 837.479 216.92C837.479 219.08 836.969 220.97 835.949 222.59C834.989 224.21 833.669 225.5 831.989 226.46C830.369 227.36 828.569 227.81 826.589 227.81ZM895.95 228.26C889.53 228.26 883.92 227.09 879.12 224.75C874.38 222.41 870.72 219.17 868.14 215.03C865.56 210.83 864.27 206 864.27 200.54C864.27 195.08 865.23 190.04 867.15 185.42C869.07 180.8 871.77 176.81 875.25 173.45C878.73 170.03 882.87 167.39 887.67 165.53C892.53 163.67 897.9 162.74 903.78 162.74C909.6 162.74 914.76 163.76 919.26 165.8C923.76 167.84 927.12 170.78 929.34 174.62L916.47 184.88C915.03 182.48 913.14 180.65 910.8 179.39C908.52 178.13 905.79 177.5 902.61 177.5C899.55 177.5 896.76 178.04 894.24 179.12C891.78 180.2 889.65 181.73 887.85 183.71C886.05 185.69 884.67 188.03 883.71 190.73C882.75 193.37 882.27 196.25 882.27 199.37C882.27 202.19 882.87 204.68 884.07 206.84C885.33 208.94 887.1 210.59 889.38 211.79C891.72 212.93 894.48 213.5 897.66 213.5C900.48 213.5 903.18 212.93 905.76 211.79C908.4 210.65 910.83 208.79 913.05 206.21L923.58 216.56C920.04 220.82 915.96 223.85 911.34 225.65C906.72 227.39 901.59 228.26 895.95 228.26ZM979.617 228.26C973.137 228.26 967.557 227.09 962.877 224.75C958.197 222.35 954.597 219.08 952.077 214.94C949.557 210.8 948.297 206 948.297 200.54C948.297 195.02 949.257 189.98 951.177 185.42C953.097 180.8 955.797 176.81 959.277 173.45C962.757 170.03 966.897 167.39 971.697 165.53C976.557 163.67 981.867 162.74 987.627 162.74C994.107 162.74 999.687 163.94 1004.37 166.34C1009.05 168.68 1012.65 171.92 1015.17 176.06C1017.69 180.2 1018.95 185 1018.95 190.46C1018.95 195.98 1017.99 201.05 1016.07 205.67C1014.15 210.23 1011.45 214.22 1007.97 217.64C1004.49 221 1000.32 223.61 995.457 225.47C990.657 227.33 985.377 228.26 979.617 228.26ZM981.147 213.5C984.267 213.5 987.027 212.93 989.427 211.79C991.887 210.65 993.957 209.06 995.637 207.02C997.377 204.92 998.697 202.55 999.597 199.91C1000.5 197.27 1000.95 194.48 1000.95 191.54C1000.95 188.72 1000.35 186.26 999.147 184.16C998.007 182.06 996.327 180.44 994.107 179.3C991.947 178.1 989.277 177.5 986.097 177.5C983.037 177.5 980.277 178.07 977.817 179.21C975.357 180.35 973.257 181.97 971.517 184.07C969.837 186.11 968.547 188.45 967.647 191.09C966.747 193.73 966.297 196.52 966.297 199.46C966.297 202.22 966.867 204.68 968.007 206.84C969.207 208.94 970.887 210.59 973.047 211.79C975.267 212.93 977.967 213.5 981.147 213.5ZM1040.61 227L1053.21 164H1067.7L1085.07 206.93H1077.42L1111.08 164H1126.29L1113.87 227H1097.4L1104.87 188.84L1107.84 188.75L1082.91 220.79H1075.08L1061.49 188.66L1064.64 188.93L1056.99 227H1040.61Z" fill="#C29E04"/>
</svg>
