<svg version="1.2" xmlns="http://www.w3.org/2000/svg" viewBox="0 0 1093 452" width="1093" height="452">
	<style>
		.s0 { opacity: .96;fill: #48d5aa } 
		.s1 { opacity: .97;fill: #242e34 } 
	</style>
	<g id="Background">
		<path id="Path 0" fill-rule="evenodd" class="s0" d="m286.5 71.03c21.92-0.05 29.42 0.25 30.72 1.2 1.06 0.78 5.96 14.25 12.67 34.77 6.01 18.43 14.59 44.75 19.05 58.5 4.46 13.75 8.09 25.56 8.08 26.25-0.01 0.69-1.26 1.78-2.77 2.42-1.51 0.65-13.32 6.03-26.25 11.96-12.93 5.93-27.77 12.98-33 15.67-5.23 2.68-15.13 7.94-22 11.67-6.88 3.73-20.15 11.29-29.5 16.8-9.35 5.51-25.32 15.53-35.5 22.26-10.18 6.74-24.35 16.64-31.5 22.01-7.15 5.37-17.05 13.26-22 17.53-4.95 4.27-12.82 11.69-26 25.19l6.5-5c3.57-2.75 13.96-9.89 23.08-15.88 9.12-5.98 18.79-12.28 21.5-13.99 2.71-1.7 10.99-6.61 18.42-10.91 7.43-4.29 24.3-13.3 37.5-20.03 13.2-6.72 29.63-14.79 36.5-17.92 6.88-3.14 14.3-6.53 16.5-7.53 2.2-1.01 9.63-4.3 16.5-7.31 6.88-3.01 18.13-7.8 25-10.65 6.88-2.84 14.98-6.24 18-7.54 3.02-1.31 7.66-2.97 10.3-3.69 4.15-1.13 4.91-1.11 5.66 0.19 0.53 0.92 0.27 3.44-0.66 6.5-0.84 2.75-2.6 7.14-3.91 9.75-1.32 2.61-3.85 6.38-5.64 8.37-1.79 1.99-5.95 5.1-9.25 6.91-3.3 1.81-15.45 7.34-27 12.29-11.55 4.94-29.77 12.8-40.5 17.45-10.73 4.66-28.95 12.86-40.5 18.23-11.55 5.37-30.22 14.59-41.5 20.48-11.28 5.89-26.13 13.98-33 17.97-6.88 3.99-18.13 11.02-37.5 23.98l-28 0.02c-15.4 0.01-29.01-0.2-30.25-0.46-1.24-0.27-2.25-0.94-2.25-1.49 0-0.55 9.26-15.51 20.57-33.25 11.31-17.74 24.8-38.77 29.97-46.75 5.17-7.98 10.78-16.75 12.46-19.5 1.68-2.75 8.85-14 15.94-25 7.08-11 20.45-31.82 29.72-46.27 9.26-14.44 17.72-27.72 18.8-29.5 1.08-1.77 5.44-8.63 9.68-15.23 4.25-6.6 11.02-17.16 15.04-23.46 4.03-6.3 10.77-16.65 14.98-23 4.22-6.35 9.62-13.45 12-15.78 2.39-2.33 6.59-5.12 9.34-6.2 4.55-1.79 7.62-1.97 34-2.03zm-63.32 139.47c-12.33 18.7-23.27 35.24-24.3 36.75-1.04 1.51-1.88 2.97-1.88 3.25 0 0.28 2.81-0.91 6.25-2.63 3.44-1.72 18.63-9.75 33.75-17.84 15.13-8.1 35.71-19.07 45.75-24.38 11.09-5.86 18.1-10.14 17.87-10.9-0.2-0.69-1.52-4.63-2.93-8.75-1.4-4.13-4.67-14.25-7.26-22.5-2.58-8.25-5.99-18.94-7.56-23.75-1.58-4.81-2.82-9.4-2.77-10.19 0.06-0.79-0.34-1.68-0.89-1.98-0.55-0.3-8.33 10.59-17.3 24.19-8.96 13.6-26.39 40.03-38.73 58.73zm155.19 94l8.43 25.5c4.75 14.39 8.16 26.26 7.81 27.25-0.57 1.63-2.98 1.73-67.89 1.25l-7.87-25c-4.33-13.75-7.86-25.79-7.86-26.75 0.01-1.15 0.95-1.87 2.76-2.11 1.51-0.19 16.67-0.31 64.62-0.14z"/>
		<path id="Path 1" fill-rule="evenodd" class="s1" d="m472.97 117l39.53-0.04 1.2 5.27c0.67 2.9 8.21 34.29 16.77 69.77 8.56 35.48 15.55 64.61 15.54 64.75 0 0.14-8.9 0.26-39.51 0.29l-1.83-8.77q-1.53-7.23-3.67-18.27l-59.5-0.03-16 27.02-20.75 0.01c-16.13 0-20.67-0.28-20.38-1.25 0.2-0.69 18.26-29.15 40.13-63.25 21.87-34.1 41.72-65.04 44.11-68.75zm-1.25 62c-6.05 10.18-11.17 19.06-11.36 19.75-0.27 0.97 3.57 1.25 16.9 1.23l17.25-0.02c-6.63-32.91-8.69-42.91-8.86-43.46-0.17-0.55-0.89 0.13-1.61 1.5-0.72 1.38-6.26 10.82-12.32 21zm149.29-62c28.76 0 37.46 0.31 43.25 1.55 3.98 0.86 10.17 2.96 13.75 4.68 3.86 1.85 8.63 5.28 11.75 8.45 2.88 2.92 6.35 7.68 7.7 10.57 1.35 2.89 2.96 8.4 3.57 12.25 0.79 5.03 0.8 9.19 0.04 14.75-0.58 4.26-1.98 10.34-3.09 13.5-1.12 3.16-3.35 7.78-4.96 10.25-1.6 2.47-5.07 6.61-7.71 9.19-2.64 2.58-7.5 6.31-10.8 8.29-3.3 1.97-9.38 4.66-13.5 5.98-4.13 1.31-12.23 2.87-18 3.47-5.78 0.6-16.92 1.08-39 1.07l-6.56 35.5-20.22 0.25c-15.81 0.2-20.14-0.02-19.84-1 0.21-0.69 6.5-31.85 13.99-69.25 7.48-37.4 13.61-68.34 13.61-68.75 0.01-0.41 16.22-0.75 36.02-0.75zm-2.37 33.13c-0.37 1.3-2.23 10.25-4.16 19.87-1.92 9.63-3.49 17.84-3.48 18.25 0 0.41 7.35 0.64 16.33 0.5 15.94-0.24 16.47-0.32 22.2-3.25 4.99-2.55 6.29-3.82 8.7-8.5 2.13-4.13 2.83-6.87 2.81-11-0.02-3.17-0.78-6.98-1.78-9-1.21-2.42-3.3-4.26-6.75-5.96-4.42-2.18-6.63-2.51-19.11-2.87l-14.11-0.42zm222.38-33.12l-0.68 2.75c-0.37 1.51-1.83 8.37-5.82 27.75l-70.86 1-1.76 9c-0.97 4.95-1.79 10.01-1.88 13.5h30.5c23.72 0 30.5 0.27 30.51 1.25 0.01 0.68-1.23 7.44-5.51 28.78l-62-0.07-2.26 10.77c-1.23 5.92-2.25 11.55-2.25 12.52 0.01 1.63 2.41 1.75 73.01 1.75l-0.68 2.75c-0.37 1.51-1.86 8.37-5.96 27.75l-56.18 0.25c-30.9 0.13-56.18-0.09-56.18-0.5 0.01-0.42 6.1-31.35 13.55-68.75 7.45-37.4 13.73-68.57 13.97-69.25 0.33-0.98 12.33-1.25 110.48-1.25zm11.34 0h42.66l9.75 19.5c5.36 10.73 10.08 19.5 10.5 19.5 0.41 0 8.51-8.8 35.25-39.09l44.5 0.09-2.25 2.77c-1.24 1.52-13.99 15.59-28.34 31.25-14.35 15.66-27.62 30.2-29.5 32.31-3.34 3.75-3.38 3.89-1.75 6.5 0.91 1.47 9.35 16.84 18.76 34.17 9.41 17.32 17.1 31.83 17.09 32.25-0.01 0.41-9.58 0.75-42.51 0.75l-10.25-20.5c-5.64-11.28-10.59-20.49-11-20.47-0.42 0.02-8.63 9.22-35.75 40.82l-48 0.21 2-2.25c1.1-1.24 14.56-15.99 29.91-32.78 15.36-16.8 29.4-32.11 34.51-37.53l-10.06-19c-5.54-10.45-13.55-25.64-17.8-33.75zm58.16 175.78c3.3 0.24 8.25 1.06 11 1.84 2.75 0.77 5.67 1.83 6.5 2.35 1.28 0.8 1.03 1.89-1.75 7.48-1.94 3.91-3.75 6.37-4.5 6.11-0.69-0.25-3.73-1.2-6.75-2.13-3.69-1.12-7.48-1.52-11.5-1.19-4.53 0.37-6.43 1.01-7.75 2.62-1.2 1.47-1.48 2.68-0.88 3.89 0.47 0.96 2.16 2.28 3.75 2.93 1.58 0.65 5.58 1.92 8.88 2.83 3.3 0.9 7.91 2.73 10.25 4.06 2.34 1.34 4.92 3.78 5.75 5.43 0.82 1.65 1.5 4.8 1.5 7 0 2.2-0.7 5.68-1.56 7.75-0.85 2.06-2.54 4.8-3.75 6.09-1.2 1.3-4.44 3.55-7.19 5-4.71 2.5-5.78 2.65-18.5 2.62-11.46-0.04-14.37-0.38-19.25-2.25-3.16-1.22-5.96-2.55-6.21-2.96-0.26-0.42 1.09-3.79 6.46-14.25l5.25 2.47c2.89 1.36 7.95 2.77 11.25 3.14 3.3 0.36 7.69 0.37 9.75 0.02 2.7-0.46 4.1-1.36 5-3.24 1.1-2.29 1-2.78-0.75-4.02-1.1-0.77-6.39-2.75-11.75-4.39-7.59-2.32-10.53-3.76-13.25-6.48-1.93-1.94-3.77-4.96-4.11-6.75-0.33-1.79-0.33-5.05 0-7.25 0.33-2.2 1.9-5.8 3.49-8 1.59-2.2 5.08-5.23 7.75-6.72 2.68-1.5 7.57-3.11 10.87-3.57 3.3-0.47 8.7-0.66 12-0.43zm-325 0.23c5.75-0.04 10.62 0.51 13.5 1.52 2.47 0.87 5.96 2.68 7.75 4.02 1.79 1.35 3.68 3.23 4.21 4.2 0.8 1.44-0.17 2.67-5.5 7-6.29 5.11-6.5 5.19-7.96 3.25-0.83-1.1-2.85-2.68-4.5-3.5-1.65-0.83-5.25-1.5-8-1.5-2.75 0-6.24 0.47-7.75 1.06-1.51 0.58-4.05 2.27-5.63 3.75-1.58 1.48-3.71 4.49-4.73 6.69-1.01 2.2-1.85 6.25-1.85 9-0.01 2.75 0.54 6.1 1.22 7.45 0.68 1.35 2.81 3.5 4.74 4.78 2.45 1.63 4.92 2.31 8.25 2.29 2.61-0.01 6.44-0.72 8.5-1.58 2.06-0.86 4.65-2.42 5.75-3.49 1.98-1.91 2.04-1.88 12.67 8.55l-3.34 3.26c-1.83 1.79-5.36 4.26-7.83 5.47-3.47 1.7-6.8 2.31-14.5 2.62-7.33 0.3-11.34-0.02-15-1.18-2.82-0.9-7.13-3.47-9.89-5.89-2.68-2.35-5.49-5.52-6.25-7.03-0.75-1.52-1.81-5.12-2.36-8q-1-5.25 0-11.5c0.55-3.44 2.07-8.39 3.37-11 1.31-2.62 3.5-6.1 4.87-7.75 1.37-1.65 4.43-4.35 6.81-6 2.39-1.65 6.61-3.78 9.39-4.72 3.23-1.1 8.31-1.74 14.06-1.77zm-132.03 0.99c22.36 0 28.45 0.27 28.15 1.25-0.2 0.68-0.88 3.83-2.62 12.75l-19.36 0.5-10.14 48.53-8.75-0.02c-7.11-0.01-8.75-0.3-8.75-1.51 0-0.83 2.02-11.4 4.5-23.5 2.47-12.1 4.5-22.45 4.5-23 0-0.6-3.83-1-19-1l0.58-2.75c0.31-1.52 0.8-4.1 1.08-5.75 0.28-1.65 0.69-3.57 0.9-4.25 0.3-0.97 6.97-1.25 28.91-1.25zm62.5 0c8.06 0 8.99 0.18 8.7 1.75-0.18 0.96-2.99 15.13-12.17 61.25h-9.25c-6.94 0-9.15-0.32-8.86-1.25 0.21-0.69 2.93-14.3 6.05-30.25 3.11-15.95 5.85-29.57 6.08-30.25 0.3-0.88 3.13-1.25 9.45-1.25zm134.5 0c6.15 0 8.53 0.34 8.54 1.25 0.01 0.68-0.92 5.97-2.05 11.75-1.13 5.77-1.81 10.61-1.51 10.75 0.3 0.13 6.51-5.16 27.05-23.78l10.5-0.03c8.51-0.03 10.28 0.21 9.36 1.26-0.63 0.71-7.73 7.15-15.78 14.3-8.05 7.15-14.64 13.22-14.64 13.5-0.01 0.27 4.33 7.47 9.65 16 5.31 8.52 9.82 16.06 10.03 16.75 0.29 0.94-2.09 1.25-19.62 1.25l-6.68-10.75c-3.67-5.92-6.82-10.87-7-11-0.18-0.14-2.11 1.21-4.29 3-3.3 2.7-4.15 4.17-5.04 8.75-0.59 3.02-1.28 6.51-1.53 7.75-0.44 2.13-0.93 2.25-9.46 2.25-8.8 0-8.99-0.06-8.57-2.25 0.24-1.24 2.95-14.85 6.03-30.25 3.08-15.4 5.8-28.57 6.04-29.25 0.31-0.87 3.06-1.25 8.97-1.25zm102.53 0c13.75 0 25 0.33 24.99 0.75 0 0.41-0.41 2.32-0.9 4.25-0.49 1.92-1.17 4.73-2.09 9l-31.5-0.05-2 10.01 13.75 0.02c10.32 0.01 13.75 0.33 13.74 1.27 0 0.68-0.56 3.83-2.49 12.71l-27.96 0.54-2.54 10.5h16.5c12.53 0 16.5 0.3 16.49 1.25 0 0.68-0.56 3.84-2.49 12.76h-25.25c-19.53-0.01-25.25-0.3-25.24-1.26 0-0.69 2.7-14.75 6-31.25 3.29-16.5 5.99-30.12 5.99-30.25 0-0.14 11.25-0.25 25-0.25zm76.97 0c21.75 0 28.03 0.28 28.04 1.25 0 0.68-0.56 3.84-2.51 12.79l-19.5-0.04-9.5 49.02-9.25-0.01c-8.32-0.01-9.21-0.19-8.79-1.76 0.25-0.97 2.5-11.88 5.01-24.25 2.5-12.38 4.55-22.62 4.54-22.75-0.01-0.14-4.29-0.25-9.51-0.25-6.95 0-9.5-0.34-9.48-1.25 0.02-0.69 0.48-3.28 1.03-5.75 0.55-2.48 1.2-5.07 1.45-5.75 0.34-0.96 6.96-1.25 28.47-1.25z"/>
	</g>
</svg>